<?xml version="1.0" standalone="no"?>
<!DOCTYPE svg PUBLIC "-//W3C//DTD SVG 20010904//EN"
 "http://www.w3.org/TR/2001/REC-SVG-20010904/DTD/svg10.dtd">
<svg version="1.0" xmlns="http://www.w3.org/2000/svg"
 width="550.000000pt" height="356.000000pt" viewBox="0 0 550.000000 356.000000"
 preserveAspectRatio="xMidYMid meet">

<g transform="translate(0.000000,356.000000) scale(0.100000,-0.100000)"
fill="#ffffff" stroke="none">
<path d="M2500 3300 c-255 -21 -529 -127 -754 -294 -154 -114 -325 -316 -420
-496 -36 -69 -96 -210 -96 -226 0 -2 24 -4 54 -4 54 0 55 0 67 38 52 158 187
361 337 504 287 272 651 403 1055 377 453 -30 883 -303 1102 -702 20 -37 34
-67 30 -67 -3 0 3 -12 14 -26 11 -14 27 -47 36 -75 l17 -49 54 0 c30 0 54 2
54 4 0 2 -15 44 -34 93 -86 227 -288 487 -496 641 -95 71 -289 171 -405 211
-185 62 -407 88 -615 71z"/>
<path d="M2995 2200 l-250 -5 -3 -368 c-2 -334 -1 -368 14 -374 9 -3 24 -2 33
4 13 9 16 36 19 172 l3 162 47 1 c26 0 124 -1 217 -2 193 -2 238 6 292 53 78
68 98 198 41 261 -16 17 -28 35 -28 41 0 9 -82 48 -120 57 -8 1 -127 1 -265
-2z m242 -66 c77 -10 122 -51 129 -119 7 -62 -17 -110 -67 -137 -30 -16 -60
-18 -261 -18 l-228 0 0 140 0 140 188 0 c103 0 211 -3 239 -6z"/>
<path d="M370 2178 c-29 -15 -56 -40 -77 -72 -28 -40 -33 -58 -33 -106 0 -114
76 -195 195 -207 49 -5 60 -3 71 12 23 31 1 55 -52 55 -90 0 -144 51 -144 136
0 48 4 59 34 92 l34 37 254 3 c139 1 263 4 274 7 27 6 38 33 23 51 -9 11 -63
14 -273 14 -252 0 -264 -1 -306 -22z"/>
<path d="M1205 2185 c-50 -18 -131 -102 -145 -153 -5 -21 -10 -151 -10 -305 0
-239 2 -268 16 -274 9 -3 24 -2 33 4 14 9 17 46 21 284 6 311 8 319 83 364 42
24 51 25 196 25 164 0 184 -5 233 -57 15 -15 32 -41 37 -56 7 -17 11 -128 11
-286 0 -224 2 -260 16 -272 11 -9 20 -10 32 -2 15 9 17 40 17 289 0 267 -1
281 -22 319 -28 52 -68 89 -123 114 -39 18 -65 21 -200 20 -107 0 -167 -4
-195 -14z"/>
<path d="M1852 2188 c-9 -9 -12 -104 -12 -364 0 -309 2 -353 16 -365 11 -9 20
-10 32 -2 15 9 17 44 20 322 l2 313 151 -144 c83 -79 159 -147 169 -152 23
-10 36 1 219 173 l131 123 2 -318 c3 -298 4 -319 21 -322 46 -9 47 -1 47 365
0 348 -3 383 -37 383 -13 0 -143 -114 -318 -281 l-50 -48 -178 164 c-98 91
-184 165 -191 165 -7 0 -17 -5 -24 -12z"/>
<path d="M3537 2194 c-4 -4 -7 -168 -7 -364 0 -263 3 -359 12 -368 9 -9 99
-12 345 -12 300 0 334 2 340 16 3 9 2 24 -4 33 -9 14 -47 16 -316 19 l-307 2
-2 338 -3 337 -25 3 c-14 2 -29 0 -33 -4z"/>
<path d="M4332 2188 c-17 -17 -17 -709 0 -726 9 -9 99 -12 345 -12 300 0 334
2 340 16 3 9 2 24 -4 33 -9 14 -47 16 -317 19 l-306 2 0 135 0 135 299 0 c165
0 306 3 315 6 9 3 16 16 16 29 0 13 -7 26 -16 29 -9 3 -150 6 -315 6 l-299 0
0 135 0 135 306 2 c270 3 308 5 317 19 6 9 7 24 4 33 -6 14 -40 16 -340 16
-246 0 -336 -3 -345 -12z"/>
<path d="M689 1844 c-23 -28 2 -48 67 -55 50 -6 63 -12 90 -42 44 -48 52 -94
25 -149 -35 -73 -34 -72 -330 -78 -228 -4 -265 -7 -274 -21 -6 -9 -7 -24 -4
-33 6 -14 35 -16 272 -16 243 0 269 2 304 19 69 35 121 115 121 185 0 69 -58
157 -124 187 -51 23 -129 25 -147 3z"/>
<path d="M1230 1366 c0 -16 60 -157 96 -226 56 -108 273 -399 298 -400 4 0 32
-22 61 -49 169 -154 460 -287 725 -332 97 -16 363 -16 460 0 281 48 551 175
750 355 183 166 325 370 405 582 14 36 25 68 25 70 0 2 -24 4 -54 4 -54 0 -55
0 -67 -37 -6 -21 -28 -72 -49 -113 -194 -397 -581 -685 -1018 -756 -119 -19
-325 -19 -444 0 -201 33 -418 124 -593 248 -114 82 -278 257 -360 388 -36 57
-98 183 -114 233 -12 37 -13 37 -67 37 -30 0 -54 -2 -54 -4z"/>
</g>
</svg>
