<?xml version="1.0" encoding="utf-8"?>
<!-- Generator: Adobe Illustrator 27.0.0, SVG Export Plug-In . SVG Version: 6.00 Build 0)  -->
<svg version="1.1" id="Ebene_1" xmlns="http://www.w3.org/2000/svg" xmlns:xlink="http://www.w3.org/1999/xlink" x="0px" y="0px"
	 viewBox="0 0 1024 383" style="enable-background:new 0 0 1024 383;" xml:space="preserve">
<g>
	<g>
		<g>
			<g>
				<path d="M1015,150H757.5c15-28.1,44.6-47.2,78.7-47.2c23.6,0,44.9,9.2,60.9,24.1h110.9C981.7,57.6,914.7,8.4,836.2,8.4
					c-61.2,0-115.4,30-148.8,76.1c19.1,31.3,30.2,68.2,30.2,107.6c0,14.4-1.5,28.4-4.3,42h201.6c-15,28.1-44.6,47.2-78.7,47.2
					c-23.6,0-44.9-9.2-60.9-24.1H707c-5,15-11.5,29.3-19.6,42.6c33.4,46.1,87.5,76.1,148.8,76.1c101.4,0,183.7-82.2,183.7-183.7
					C1019.8,177.6,1015,150,1015,150z"/>
			</g>
			<g>
				<g>
					<path d="M369.1,192c0-101.4-82.2-183.7-183.7-183.7S1.8,90.6,1.8,192S84,375.7,185.5,375.7c78.5,0,145.5-49.3,171.8-118.6
						H246.4c-15.9,14.9-37.3,24.1-60.9,24.1c-34.1,0-63.7-19.1-78.7-47.2h257.5C367.4,220.5,369.1,206.5,369.1,192z M106.8,150
						c15-28.1,44.6-47.2,78.7-47.2s63.7,19.1,78.7,47.2H106.8z"/>
				</g>
			</g>
			<g>
				<path d="M638.3,60.2c0,0,1.6,1.5,2.3,2.3C640.3,62.1,639.6,61.4,638.3,60.2z"/>
			</g>
			<g>
				<path d="M640.7,62.4C641.1,62.9,641,62.8,640.7,62.4L640.7,62.4z"/>
			</g>
			<g>
				<path d="M670.4,101.3l-70.7,84.2c0.2,2.3,0.3,4.5,0.3,6.8c0,46.3-35.3,84.4-80.5,88.8L449,365.1c19.3,6.9,40.2,10.8,61.9,10.8
					c101.4,0,183.7-82.2,183.7-183.7C694.5,159.1,685.7,128,670.4,101.3z"/>
			</g>
			<g>
				<g>
					<path d="M618.8,43.7c-6.9-5.1-14.2-9.6-21.9-13.6l-63.6,75.9c8.7,2.3,17,5.8,24.4,10.5L618.8,43.7z"/>
					<path d="M429.8,229.3l-63.6,75.8c5.3,6.8,11,13.3,17.1,19.2l61-72.7C438.4,245,433.6,237.4,429.8,229.3z"/>
					<path d="M402.9,340.7c6.9,5,14.2,9.7,21.8,13.7l63.7-75.9c-8.7-2.3-16.9-5.9-24.4-10.5L402.9,340.7z"/>
					<path d="M638.3,60.2l-61,72.7c5.9,6.6,10.8,14.1,14.6,22.2l63.7-75.9C650.3,72.4,638.3,60.2,638.3,60.2z"/>
					<path d="M557.8,116.5L444.4,251.6c5.7,6.4,12.2,11.9,19.5,16.4l113.4-135.1C571.6,126.5,557.8,116.5,557.8,116.5z"/>
					<path d="M591.9,155.1L488.3,278.4c7.2,1.9,14.7,3,22.4,3c2.9,0,5.8-0.2,8.7-0.4l80.2-95.6C598.9,174.7,596.2,164.5,591.9,155.1
						z"/>
					<path d="M422,198.9l80.2-95.5c2.8-0.3,5.8-0.4,8.7-0.4c7.8,0,15.3,1.1,22.4,3L429.8,229.3C425.5,219.9,422.8,209.7,422,198.9"
						/>
				</g>
			</g>
			<g id="HATCH_00000114790127446515340990000016600521831205422524_">
				<g>
					<path d="M421.9,198.8c-0.2-2.3-0.3-4.5-0.3-6.8c0-46.3,35.3-84.4,80.5-88.8l70.5-84.1c-19.3-6.9-40.1-10.8-61.9-10.8
						c-61.2,0-115.4,30-148.8,76.1c19.2,31.3,30.2,68.2,30.2,107.6c0,17-6.1,49.4-6.1,49.4L421.9,198.8z"/>
				</g>
			</g>
		</g>
	</g>
</g>
</svg>
