<svg width="150" height="22" viewBox="0 0 150 22" fill="none" xmlns="http://www.w3.org/2000/svg">
<g clip-path="url(#clip0_361_2928)">
<path d="M4.56461 15.0254H2.07247C0.927875 15.0254 0 15.9259 0 17.0368V19.9886C0 21.0995 0.927875 22 2.07247 22H4.56461C5.7092 22 6.63708 21.0995 6.63708 19.9886V17.0368C6.63708 15.9259 5.7092 15.0254 4.56461 15.0254Z" fill="#100AED"/>
<path d="M31.1026 15.0254H28.6156C27.4706 15.0254 26.5431 14.1253 26.5431 13.0139V2.01646C26.5431 0.905143 25.6157 0.00502857 24.4707 0.00502857H21.9837C20.8387 0.00502857 19.9113 0.905143 19.9113 2.01646V13.019C19.9113 14.1253 18.9838 15.0254 17.8388 15.0254H15.3518C14.2068 15.0254 13.2794 14.1253 13.2794 13.0139V2.01143C13.2794 0.900114 12.3519 0 11.2069 0H8.71993C7.57489 0 6.64746 0.900114 6.64746 2.01143V13.0089C6.64746 14.1202 7.57489 15.0203 8.71993 15.0203H11.2069C12.3519 15.0203 13.2794 15.9205 13.2794 17.0318V19.9785C13.2794 21.0898 14.2068 21.9899 15.3518 21.9899H17.8388C18.9838 21.9899 19.9113 21.0898 19.9113 19.9785V17.0267C19.9113 15.9205 20.8387 15.0203 21.9837 15.0203H24.4707C25.6157 15.0203 26.5431 15.9205 26.5431 17.0318V19.9785C26.5431 21.0898 27.4706 21.9899 28.6156 21.9899H31.1026C32.2476 21.9899 33.175 21.0898 33.175 19.9785V17.0318C33.175 15.9205 32.2476 15.0203 31.1026 15.0203V15.0254Z" fill="#100AED"/>
<path d="M39.8071 13.4012V2.18744H42.6464V13.3006C42.6464 15.9808 44.5634 17.6151 46.838 17.6151C49.1125 17.6151 51.0295 15.9758 51.0295 13.3006V2.18744H53.8429V13.4012C53.8429 15.9054 52.2057 20.0489 46.838 20.0489C41.4703 20.0489 39.8071 15.9054 39.8071 13.4012Z" fill="black"/>
<path d="M56.9722 19.8025V2.18744H59.7337V19.8025H56.9722Z" fill="black"/>
<path d="M69.5159 8.96095H66.5264V17.5447H69.5159V19.8026H65.4798C64.485 19.8026 63.7648 19.1086 63.7648 18.1431V8.96598H61.7441V6.65787H63.7648V3.30884H66.5264V6.65787H69.5159V8.96598V8.96095Z" fill="black"/>
<path d="M71.8008 2.18744H74.5623V4.91795H71.8008V2.18744ZM71.8008 6.65281H74.5623V19.8025H71.8008V6.65281Z" fill="black"/>
<path d="M77.7437 19.8025V3.8519C77.7437 2.88641 78.4587 2.18744 79.4586 2.18744H82.8834L86.2045 13.6978L87.1734 17.2681H87.7588L88.7329 13.6978L92.054 2.18744H97.1937V19.8025H94.5358V4.74195H93.9503L92.9037 8.61395L89.5826 19.8025H85.3651L82.0181 8.61395L80.9974 4.74195H80.386V19.7975H77.754L77.7437 19.8025Z" fill="black"/>
<path d="M99.8257 16.0059C99.8257 13.1799 101.561 12.4357 104.939 12.1088L108.748 11.7367V10.8416C108.748 9.15702 107.675 8.50834 105.96 8.50834C104.245 8.50834 103.38 9.17714 103.173 10.6656H100.385C100.385 7.93508 102.841 6.40137 106.059 6.40137C109.276 6.40137 111.426 7.78925 111.426 10.917V17.4894H113.115V19.7975H110.535C109.639 19.7975 109.002 19.179 109.002 18.309V17.8112H108.924C107.877 19.4757 106.11 20.0439 104.452 20.0439C101.769 20.0439 99.8257 18.6309 99.8257 16.0009V16.0059ZM105.09 17.9671C107.084 17.9671 108.742 16.8759 108.742 15.0907V13.728L105.447 14.1001C103.328 14.3214 102.608 14.7689 102.608 15.9355C102.608 17.2983 103.375 17.9671 105.09 17.9671Z" fill="black"/>
<path d="M126.965 19.6265V19.7975H123.897L120.447 13.8185H117.944V19.7975H115.183V2.18744H117.944V11.5154H120.447L123.897 6.65281H126.965V6.82881L122.773 12.5111V12.8078L126.965 19.6316V19.6265Z" fill="black"/>
<path d="M127.794 13.2302C127.794 9.23752 130.556 6.40643 134.467 6.40643C138.379 6.40643 141.446 9.28278 141.141 13.9996H130.561C130.84 16.2574 132.322 17.9168 134.472 17.9168C136.084 17.9168 137.286 17.0217 137.82 15.7093H140.757C139.965 18.3644 137.56 20.0489 134.467 20.0489C130.504 20.0489 127.794 17.248 127.794 13.2252V13.2302ZM138.348 11.9379C137.965 9.90632 136.483 8.5134 134.462 8.5134C132.441 8.5134 131.037 9.95158 130.628 11.9379H138.348Z" fill="black"/>
<path d="M145.146 6.65283H150V8.96095H146.192V19.8025H143.431V8.31729C143.431 7.32666 144.146 6.65283 145.14 6.65283H145.146Z" fill="black"/>
</g>
<defs>
<clipPath id="clip0_361_2928">
<rect width="150" height="22" fill="white"/>
</clipPath>
</defs>
</svg>
